<?xml version="1.0" encoding="UTF-8" standalone="no"?>
<!DOCTYPE svg PUBLIC "-//W3C//DTD SVG 1.1//EN" "http://www.w3.org/Graphics/SVG/1.1/DTD/svg11.dtd">
<svg width="100%" height="100%" viewBox="0 0 516 167" version="1.1" xmlns="http://www.w3.org/2000/svg" xmlns:xlink="http://www.w3.org/1999/xlink" xml:space="preserve" xmlns:serif="http://www.serif.com/" style="fill-rule:evenodd;clip-rule:evenodd;stroke-linejoin:round;stroke-miterlimit:2;">
    <g transform="matrix(1,0,0,1,-239,-96)">
        <g>
            <g transform="matrix(3.29456,0,0,3.29456,-128.706,-284.84)">
                <path d="M169.543,418.63L38.085,418.63C36.245,418.63 34.753,417.138 34.753,415.298L34.753,81.723C34.753,79.883 36.245,78.392 38.085,78.392L621.424,78.392C623.264,78.392 624.756,79.883 624.756,81.723L624.756,115.274C612.786,114.274 600.726,113.746 588.704,113.746C537.262,113.746 486.356,123.399 444.65,146.941C429.371,155.025 415.355,165.065 402.997,177.325C385.757,173.166 373.23,170.247 369.398,169.587C366.145,169.001 363.223,168.75 360.627,168.75C354.852,168.75 350.691,169.99 348.075,171.54C347.971,171.59 347.869,171.64 347.77,171.69C347.766,171.686 347.762,171.682 347.758,171.677L347.744,171.661C345.464,172.76 344.367,173.794 344.367,173.794L344.333,173.804C344.338,173.832 344.344,173.864 344.352,173.9L344.333,173.905L344.333,173.906C343.531,174.141 329.648,178.351 332.618,187.158C332.619,187.161 332.62,187.164 332.621,187.167C332.622,187.171 332.623,187.174 332.625,187.178C332.627,187.186 332.63,187.193 332.632,187.201C332.648,187.245 332.663,187.29 332.68,187.335C335.867,196.179 354.748,202.265 354.748,202.265L378.411,208.381C362.339,234.486 351.703,267.27 348.375,307.915C339.427,417.21 184.121,342.607 169.543,418.63Z" style="fill:url(#_Linear1);"/>
            </g>
            <g transform="matrix(3.29456,0,0,3.29456,-128.706,-284.84)">
                <clipPath id="_clip2">
                    <path d="M621.424,418.63L129.144,418.63C127.304,418.63 125.812,417.138 125.812,415.298L125.812,81.723C125.812,79.883 127.304,78.392 129.144,78.392L621.424,78.392C623.264,78.392 624.756,79.883 624.756,81.723L624.756,415.298C624.756,417.138 623.264,418.63 621.424,418.63Z"/>
                </clipPath>
                <g clip-path="url(#_clip2)">
                    <path d="M195.483,418.63L169.543,418.63C184.121,342.607 339.427,417.21 348.375,307.915C340.102,408.957 224.533,362.491 197.153,415.807C196.571,416.714 196.015,417.651 195.483,418.63ZM444.65,146.941C486.356,123.399 537.262,113.746 588.704,113.746C600.726,113.746 612.786,114.274 624.756,115.274L624.756,121.779C608.083,119.956 591.308,118.956 574.752,118.956C527.792,118.956 482.389,126.975 444.65,146.941Z" style="fill:url(#_Radial3);"/>
                    <path d="M197.153,415.807C224.533,362.491 340.102,408.957 348.375,307.915C351.703,267.27 362.339,234.486 378.411,208.381L411.204,216.857C395.4,233.531 382.192,254.355 372.366,279.981C362.713,285.261 356.167,295.509 356.167,307.287C356.167,308.263 356.228,309.223 356.316,310.176C356.217,311.185 356.167,312.208 356.167,313.242C356.167,314.318 356.222,315.38 356.329,316.427C354.636,323.219 354.681,330.415 356.574,337.284C330.507,419.495 228.377,367.198 197.153,415.807ZM442.492,186.973C428.024,183.409 414.469,180.093 402.997,177.325C415.355,165.065 429.371,155.025 444.65,146.941C482.389,126.975 527.792,118.956 574.752,118.956C591.308,118.956 608.083,119.956 624.756,121.779L624.756,164.611C604.604,161.449 584.432,159.685 564.689,159.685C536.675,159.685 509.52,163.24 484.534,171.392L489.994,150.032C490.231,149.41 489.914,148.725 489.299,148.472C486.993,147.523 484.97,147.192 483.268,147.192C479.332,147.192 477.118,148.964 477.118,148.964L442.492,186.973Z" style="fill:url(#_Radial4);"/>
                    <g transform="matrix(1,0,0,1.00043,0,-0.181674)">
                        <path d="M249.764,418.63L195.483,418.63C196.015,417.651 196.571,416.714 197.153,415.807C228.377,367.198 330.507,419.495 356.574,337.284C357.196,339.538 358.016,341.757 359.04,343.915C348.583,358.153 340.081,373.917 333.934,390.813C329.457,388.473 324.364,387.15 318.962,387.15C306.093,387.15 294.978,394.657 289.756,405.531C286.76,403.003 282.893,401.473 278.665,401.473C270.248,401.473 263.253,407.518 261.756,415.501C260.532,413.88 258.596,412.828 256.407,412.828C253.012,412.828 250.205,415.354 249.764,418.63ZM415.479,290.198C414.387,289.614 413.271,289.082 412.136,288.602C406.461,281.062 397.434,276.185 387.269,276.185C381.87,276.185 376.791,277.561 372.366,279.981C382.192,254.355 395.4,233.531 411.204,216.857L512.656,243.08C516.461,244.064 520.349,244.728 524.268,245.024C530.595,245.504 536.606,245.712 542.279,245.712C564.866,245.712 582.043,242.415 591.999,239.846C594.489,239.204 596.528,238.607 598.087,238.118C600.284,237.429 601.771,235.396 601.771,233.092C601.771,230.987 600.519,229.086 598.587,228.254C598.586,228.253 598.585,228.253 598.583,228.252C598.573,228.248 598.563,228.243 598.553,228.239L586.322,222.866C586.322,222.866 532.474,209.294 478.285,195.832L484.534,171.392C509.52,163.24 536.675,159.685 564.689,159.685C584.432,159.685 604.604,161.449 624.756,164.611L624.756,272.507C619.763,270.446 614.411,269.39 609.028,269.39C600.611,269.39 592.119,271.971 584.81,277.329C583.409,278.356 582.093,279.455 580.862,280.617C559.211,271.901 535.557,267.094 510.789,267.079L510.671,267.079C494.931,267.079 479.649,269.011 465.036,272.657C463.568,271.588 461.808,271.032 460.03,271.032C458.492,271.032 456.942,271.449 455.56,272.309C454.165,266.451 448.897,262.094 442.612,262.094C435.466,262.094 429.636,267.726 429.318,274.794C427.383,275.487 425.514,276.467 423.772,277.744C419.452,280.911 416.647,285.37 415.479,290.198ZM389.386,282.21L389.378,282.21L389.386,282.21ZM385.153,282.21L385.16,282.21L385.153,282.21ZM389.34,282.207L389.331,282.207L389.34,282.207ZM385.199,282.207L385.207,282.207L385.199,282.207ZM385.244,282.204C385.248,282.204 385.253,282.204 385.257,282.203C385.252,282.204 385.248,282.204 385.244,282.204ZM389.295,282.204C389.291,282.204 389.287,282.204 389.282,282.203C389.286,282.204 389.291,282.204 389.295,282.204ZM389.248,282.201C389.244,282.201 389.24,282.201 389.236,282.2C389.239,282.201 389.244,282.201 389.248,282.201ZM385.291,282.201C385.295,282.201 385.299,282.201 385.303,282.2C385.299,282.201 385.295,282.201 385.291,282.201ZM389.2,282.198C389.197,282.198 389.191,282.198 389.188,282.197C389.192,282.198 389.196,282.198 389.2,282.198ZM385.339,282.198C385.343,282.198 385.347,282.198 385.351,282.197C385.347,282.198 385.342,282.198 385.339,282.198ZM389.152,282.195L389.142,282.195L389.152,282.195ZM385.387,282.195L385.397,282.195L385.387,282.195ZM389.105,282.193C389.101,282.192 389.097,282.192 389.093,282.192C389.097,282.192 389.101,282.192 389.105,282.193ZM385.434,282.193C385.438,282.192 385.442,282.192 385.446,282.192C385.442,282.192 385.438,282.192 385.434,282.193ZM389.058,282.19C389.054,282.19 389.05,282.189 389.046,282.189C389.049,282.189 389.054,282.19 389.058,282.19ZM385.481,282.19C385.485,282.19 385.489,282.189 385.493,282.189C385.489,282.189 385.485,282.19 385.481,282.19ZM389.01,282.187L388.999,282.187L389.01,282.187ZM385.529,282.187L385.54,282.187L385.529,282.187ZM388.963,282.185C388.96,282.184 388.957,282.184 388.954,282.184C388.956,282.184 388.96,282.184 388.963,282.185ZM385.576,282.185C385.579,282.184 385.582,282.184 385.585,282.184C385.582,282.184 385.58,282.184 385.576,282.185ZM385.623,282.182C385.627,282.182 385.632,282.182 385.636,282.181C385.631,282.182 385.628,282.182 385.623,282.182ZM388.915,282.182C388.911,282.182 388.908,282.182 388.904,282.181C388.908,282.182 388.912,282.182 388.915,282.182ZM388.732,282.173L388.727,282.173L388.732,282.173ZM385.808,282.173L385.812,282.173L385.808,282.173ZM388.692,282.171L388.678,282.171L388.692,282.171ZM385.848,282.171L385.86,282.171L385.848,282.171ZM388.648,282.169C388.642,282.169 388.636,282.169 388.63,282.168C388.636,282.169 388.642,282.169 388.648,282.169ZM385.891,282.169C385.898,282.169 385.902,282.169 385.909,282.168C385.903,282.169 385.897,282.169 385.891,282.169ZM388.6,282.167C388.593,282.167 388.588,282.167 388.582,282.166C388.588,282.167 388.594,282.167 388.6,282.167ZM385.94,282.167C385.945,282.167 385.951,282.167 385.957,282.166C385.951,282.167 385.946,282.167 385.94,282.167ZM385.986,282.165C385.992,282.165 385.999,282.165 386.006,282.164C386,282.165 385.992,282.165 385.986,282.165ZM388.553,282.165C388.547,282.165 388.539,282.165 388.533,282.164C388.54,282.165 388.547,282.165 388.553,282.165ZM386.034,282.163L386.054,282.163L386.034,282.163ZM388.505,282.163L388.485,282.163L388.505,282.163ZM386.08,282.162C386.088,282.161 386.096,282.161 386.104,282.161C386.095,282.161 386.089,282.161 386.08,282.162ZM388.459,282.162C388.45,282.161 388.444,282.161 388.435,282.161C388.443,282.161 388.451,282.161 388.459,282.162ZM388.409,282.16C388.402,282.159 388.396,282.159 388.388,282.159C388.395,282.159 388.402,282.159 388.409,282.16ZM386.13,282.16C386.137,282.159 386.144,282.159 386.151,282.159C386.143,282.159 386.137,282.159 386.13,282.16ZM386.177,282.158C386.185,282.158 386.193,282.158 386.2,282.157C386.192,282.158 386.185,282.158 386.177,282.158ZM388.362,282.158C388.353,282.158 388.347,282.158 388.339,282.157C388.346,282.158 388.354,282.158 388.362,282.158ZM388.313,282.156L388.291,282.156L388.313,282.156ZM386.226,282.156L386.248,282.156L386.226,282.156ZM386.274,282.155C386.282,282.155 386.289,282.154 386.296,282.154C386.288,282.154 386.282,282.155 386.274,282.155ZM388.265,282.155C388.258,282.155 388.25,282.154 388.243,282.154C388.25,282.154 388.257,282.155 388.265,282.155ZM388.216,282.153L388.194,282.153L388.216,282.153ZM386.323,282.153L386.345,282.153L386.323,282.153ZM388.168,282.152C388.16,282.152 388.151,282.151 388.143,282.151C388.152,282.152 388.16,282.152 388.168,282.152ZM386.371,282.152C386.379,282.152 386.387,282.152 386.396,282.151C386.388,282.151 386.379,282.152 386.371,282.152ZM386.419,282.151C386.433,282.15 386.448,282.15 386.462,282.15C386.448,282.15 386.433,282.15 386.419,282.151ZM388.119,282.151C388.106,282.15 388.093,282.15 388.079,282.15C388.092,282.15 388.107,282.15 388.119,282.151ZM386.467,282.149C386.479,282.149 386.491,282.149 386.503,282.148C386.49,282.149 386.479,282.149 386.467,282.149ZM388.072,282.149C388.06,282.149 388.048,282.149 388.036,282.148C388.048,282.149 388.06,282.149 388.072,282.149ZM388.001,282.148C387.992,282.147 387.983,282.147 387.975,282.147C387.983,282.147 387.992,282.147 388.001,282.148ZM386.538,282.148C386.547,282.147 386.556,282.147 386.564,282.147C386.556,282.147 386.547,282.147 386.538,282.148ZM386.583,282.147C386.593,282.146 386.603,282.146 386.613,282.146C386.603,282.146 386.593,282.146 386.583,282.147ZM387.956,282.147C387.946,282.146 387.936,282.146 387.926,282.146C387.936,282.146 387.946,282.146 387.956,282.147ZM386.631,282.146C386.642,282.145 386.652,282.145 386.663,282.145C386.652,282.145 386.642,282.145 386.631,282.146ZM387.908,282.146C387.898,282.145 387.886,282.145 387.876,282.145C387.886,282.145 387.898,282.145 387.908,282.146ZM386.68,282.145C386.69,282.145 386.7,282.144 386.71,282.144C386.699,282.144 386.691,282.145 386.68,282.145ZM387.859,282.145C387.848,282.145 387.84,282.144 387.829,282.144C387.839,282.144 387.849,282.145 387.859,282.145ZM387.807,282.144C387.797,282.144 387.789,282.143 387.78,282.143C387.788,282.143 387.798,282.144 387.807,282.144ZM386.732,282.144C386.741,282.144 386.751,282.143 386.759,282.143C386.75,282.143 386.742,282.144 386.732,282.144ZM386.78,282.143L386.808,282.143L386.78,282.143ZM387.759,282.143L387.731,282.143L387.759,282.143ZM386.829,282.142L386.858,282.142L386.829,282.142ZM387.71,282.142L387.681,282.142L387.71,282.142ZM386.878,282.142C386.888,282.142 386.896,282.141 386.906,282.141C386.897,282.141 386.887,282.142 386.878,282.142ZM387.661,282.142C387.652,282.142 387.642,282.141 387.633,282.141C387.643,282.141 387.651,282.142 387.661,282.142ZM387.613,282.141L387.581,282.141L387.613,282.141ZM386.926,282.141L386.958,282.141L386.926,282.141ZM386.975,282.141C386.985,282.141 386.995,282.14 387.006,282.14C386.996,282.14 386.985,282.141 386.975,282.141ZM387.564,282.141C387.554,282.141 387.543,282.14 387.533,282.14C387.544,282.14 387.554,282.141 387.564,282.141ZM387.024,282.14L387.056,282.14L387.024,282.14ZM387.515,282.14L387.483,282.14L387.515,282.14ZM387.074,282.14L387.101,282.14L387.074,282.14ZM387.465,282.14L387.438,282.14L387.465,282.14ZM387.123,282.14C387.133,282.14 387.145,282.139 387.155,282.139C387.145,282.139 387.133,282.14 387.123,282.14ZM387.416,282.14C387.406,282.14 387.394,282.139 387.384,282.139C387.394,282.139 387.406,282.14 387.416,282.14ZM387.171,282.139L387.213,282.139L387.171,282.139ZM387.368,282.139L387.326,282.139L387.368,282.139ZM387.22,282.139L387.269,282.139L387.22,282.139ZM387.319,282.139L387.269,282.139L387.319,282.139ZM439.667,264.969L439.668,264.969L439.667,264.969ZM439.705,264.96L439.706,264.96L439.705,264.96ZM439.742,264.952L439.744,264.952L439.742,264.952ZM440.122,264.874L440.126,264.874L440.122,264.874ZM440.158,264.868C440.161,264.867 440.163,264.867 440.165,264.866C440.163,264.867 440.161,264.867 440.158,264.868ZM440.195,264.861C440.198,264.86 440.202,264.86 440.205,264.859C440.202,264.86 440.199,264.86 440.195,264.861ZM445.024,264.86L445.023,264.86L445.024,264.86ZM440.234,264.854C440.237,264.853 440.241,264.853 440.244,264.852C440.241,264.853 440.238,264.853 440.234,264.854ZM444.986,264.853L444.984,264.853L444.986,264.853ZM440.272,264.847C440.276,264.846 440.28,264.846 440.284,264.845C440.28,264.846 440.276,264.846 440.272,264.847ZM444.948,264.846C444.946,264.846 444.946,264.846 444.944,264.845C444.946,264.846 444.947,264.846 444.948,264.846ZM440.312,264.84C440.316,264.839 440.319,264.839 440.323,264.838C440.319,264.839 440.316,264.839 440.312,264.84ZM444.909,264.839L444.906,264.839L444.909,264.839ZM440.351,264.833C440.355,264.833 440.359,264.832 440.362,264.831C440.359,264.832 440.355,264.833 440.351,264.833ZM444.871,264.833C444.869,264.832 444.868,264.832 444.866,264.832C444.868,264.832 444.869,264.832 444.871,264.833ZM440.391,264.826C440.394,264.826 440.398,264.825 440.402,264.825C440.398,264.825 440.394,264.826 440.391,264.826ZM444.832,264.826C444.83,264.826 444.829,264.826 444.828,264.825C444.829,264.826 444.83,264.826 444.832,264.826ZM440.429,264.82C440.434,264.819 440.438,264.819 440.442,264.818C440.438,264.819 440.434,264.819 440.429,264.82ZM444.793,264.82C444.791,264.819 444.79,264.819 444.788,264.819C444.789,264.819 444.792,264.819 444.793,264.82ZM440.47,264.813C440.473,264.813 440.476,264.812 440.48,264.812C440.476,264.812 440.473,264.813 440.47,264.813ZM444.753,264.813L444.752,264.813L444.753,264.813ZM440.509,264.807C440.512,264.807 440.516,264.806 440.519,264.806C440.516,264.806 440.512,264.807 440.509,264.807ZM440.549,264.801L440.55,264.801L440.549,264.801ZM440.703,264.778L440.705,264.778L440.703,264.778ZM440.734,264.773C440.738,264.773 440.742,264.772 440.746,264.772C440.742,264.772 440.738,264.773 440.734,264.773ZM444.484,264.773C444.483,264.772 444.482,264.772 444.48,264.772C444.482,264.772 444.483,264.772 444.484,264.773ZM440.772,264.768C440.777,264.767 440.781,264.767 440.786,264.766C440.781,264.767 440.777,264.767 440.772,264.768ZM444.449,264.768C444.445,264.767 444.443,264.767 444.44,264.766C444.443,264.767 444.446,264.767 444.449,264.768ZM440.811,264.763C440.816,264.762 440.821,264.761 440.826,264.761C440.821,264.761 440.816,264.762 440.811,264.763ZM444.411,264.762C444.407,264.762 444.404,264.761 444.4,264.761C444.403,264.761 444.407,264.762 444.411,264.762ZM440.851,264.757C440.856,264.757 440.861,264.756 440.866,264.755C440.861,264.756 440.856,264.757 440.851,264.757ZM444.372,264.757C444.367,264.757 444.364,264.756 444.36,264.756C444.364,264.756 444.368,264.757 444.372,264.757ZM440.89,264.752C440.895,264.752 440.902,264.751 440.908,264.75C440.902,264.751 440.896,264.752 440.89,264.752ZM444.333,264.752C444.328,264.751 444.323,264.751 444.318,264.75C444.323,264.751 444.328,264.751 444.333,264.752ZM440.929,264.747C440.935,264.747 440.942,264.746 440.948,264.745C440.942,264.746 440.935,264.747 440.929,264.747ZM444.294,264.747C444.289,264.746 444.284,264.746 444.278,264.745C444.284,264.746 444.288,264.746 444.294,264.747ZM440.97,264.742C440.976,264.741 440.982,264.741 440.988,264.74C440.982,264.741 440.976,264.741 440.97,264.742ZM444.254,264.742C444.248,264.741 444.243,264.741 444.238,264.74C444.243,264.741 444.248,264.741 444.254,264.742ZM441.01,264.737C441.017,264.737 441.022,264.736 441.028,264.735C441.022,264.736 441.017,264.737 441.01,264.737ZM444.213,264.737C444.208,264.737 444.203,264.736 444.198,264.735C444.203,264.736 444.208,264.737 444.213,264.737ZM441.051,264.733C441.057,264.732 441.063,264.731 441.069,264.73C441.063,264.731 441.057,264.732 441.051,264.733ZM444.173,264.732C444.168,264.732 444.162,264.731 444.157,264.731C444.162,264.731 444.168,264.732 444.173,264.732ZM441.091,264.728C441.097,264.727 441.104,264.726 441.11,264.726C441.104,264.726 441.097,264.727 441.091,264.728ZM444.133,264.728C444.128,264.727 444.122,264.727 444.116,264.726C444.122,264.727 444.127,264.727 444.133,264.728ZM441.131,264.723C441.138,264.723 441.145,264.722 441.152,264.721C441.145,264.722 441.138,264.723 441.131,264.723ZM444.093,264.723C444.087,264.723 444.082,264.722 444.075,264.721C444.081,264.722 444.087,264.723 444.093,264.723ZM441.172,264.719C441.179,264.718 441.187,264.717 441.195,264.716C441.187,264.717 441.179,264.718 441.172,264.719ZM444.053,264.719C444.046,264.718 444.04,264.718 444.033,264.717C444.04,264.718 444.046,264.718 444.053,264.719ZM441.212,264.715C441.222,264.714 441.231,264.713 441.241,264.712C441.231,264.713 441.222,264.714 441.212,264.715ZM444.013,264.715C444.005,264.714 443.997,264.713 443.99,264.712C443.997,264.713 444.005,264.714 444.013,264.715ZM441.253,264.71C441.266,264.709 441.279,264.708 441.293,264.706C441.28,264.708 441.266,264.709 441.253,264.71ZM443.972,264.71C443.966,264.71 443.96,264.709 443.955,264.709C443.96,264.709 443.966,264.71 443.972,264.71ZM441.316,264.704C441.322,264.704 441.327,264.703 441.333,264.703C441.327,264.703 441.322,264.704 441.316,264.704ZM443.902,264.704C443.899,264.703 443.896,264.703 443.892,264.703C443.895,264.703 443.899,264.703 443.902,264.704ZM441.354,264.701C441.361,264.7 441.368,264.699 441.374,264.699C441.367,264.699 441.361,264.7 441.354,264.701ZM443.868,264.7C443.863,264.7 443.856,264.699 443.851,264.699C443.856,264.699 443.863,264.7 443.868,264.7ZM441.393,264.697C441.4,264.696 441.408,264.696 441.415,264.695C441.408,264.696 441.4,264.696 441.393,264.697ZM443.83,264.697C443.824,264.696 443.816,264.696 443.81,264.695C443.817,264.696 443.823,264.696 443.83,264.697ZM441.434,264.693C441.441,264.693 441.449,264.692 441.456,264.691C441.449,264.692 441.441,264.693 441.434,264.693ZM443.79,264.693C443.783,264.693 443.775,264.692 443.769,264.691C443.776,264.692 443.783,264.693 443.79,264.693ZM441.477,264.69C441.483,264.689 441.49,264.689 441.497,264.688C441.49,264.689 441.483,264.689 441.477,264.69ZM443.747,264.69C443.741,264.689 443.735,264.689 443.728,264.688C443.735,264.689 443.741,264.689 443.747,264.69ZM441.517,264.686C441.524,264.686 441.531,264.685 441.538,264.685C441.531,264.685 441.524,264.686 441.517,264.686ZM443.707,264.686C443.7,264.686 443.694,264.685 443.687,264.685C443.693,264.685 443.701,264.686 443.707,264.686ZM441.558,264.683C441.565,264.682 441.572,264.682 441.58,264.681C441.572,264.682 441.565,264.682 441.558,264.683ZM443.667,264.683C443.659,264.682 443.653,264.682 443.646,264.681C443.653,264.682 443.659,264.682 443.667,264.683ZM441.598,264.68C441.606,264.679 441.613,264.679 441.62,264.678C441.613,264.679 441.606,264.679 441.598,264.68ZM443.626,264.68C443.619,264.679 443.612,264.679 443.605,264.678C443.612,264.679 443.619,264.679 443.626,264.68ZM441.64,264.677C441.647,264.676 441.654,264.676 441.661,264.675C441.654,264.676 441.647,264.676 441.64,264.677ZM443.584,264.677C443.577,264.676 443.571,264.676 443.564,264.675C443.571,264.676 443.577,264.676 443.584,264.677ZM441.681,264.674C441.688,264.673 441.696,264.673 441.703,264.672C441.695,264.673 441.688,264.673 441.681,264.674ZM443.543,264.674C443.536,264.673 443.529,264.673 443.522,264.672C443.529,264.673 443.536,264.673 443.543,264.674ZM441.722,264.671C441.73,264.671 441.737,264.67 441.745,264.67C441.738,264.67 441.729,264.671 441.722,264.671ZM443.503,264.671C443.495,264.671 443.487,264.67 443.48,264.67C443.487,264.67 443.495,264.671 443.503,264.671ZM441.763,264.669C441.771,264.668 441.779,264.668 441.786,264.667C441.779,264.668 441.771,264.668 441.763,264.669ZM443.462,264.669C443.454,264.668 443.446,264.668 443.439,264.667C443.446,264.668 443.454,264.668 443.462,264.669ZM441.804,264.666C441.813,264.665 441.821,264.665 441.829,264.665C441.821,264.665 441.813,264.665 441.804,264.666ZM443.42,264.666C443.412,264.666 443.404,264.665 443.396,264.665C443.404,264.665 443.412,264.666 443.42,264.666ZM441.845,264.664C441.854,264.663 441.863,264.663 441.872,264.662C441.863,264.663 441.854,264.663 441.845,264.664ZM443.38,264.664C443.371,264.663 443.362,264.663 443.353,264.662C443.362,264.663 443.371,264.663 443.38,264.664ZM441.887,264.661C441.914,264.66 441.942,264.658 441.969,264.657C441.941,264.658 441.914,264.66 441.887,264.661ZM443.338,264.661C443.31,264.66 443.284,264.658 443.256,264.657C443.283,264.658 443.311,264.66 443.338,264.661ZM441.985,264.656C441.994,264.656 442.002,264.656 442.011,264.655C442.002,264.656 441.994,264.656 441.985,264.656ZM443.24,264.656C443.231,264.656 443.223,264.656 443.214,264.655C443.223,264.656 443.231,264.656 443.24,264.656ZM442.026,264.655C442.034,264.654 442.043,264.654 442.052,264.653C442.043,264.654 442.034,264.654 442.026,264.655ZM443.199,264.655C443.19,264.654 443.181,264.654 443.173,264.653C443.182,264.654 443.19,264.654 443.199,264.655ZM442.069,264.653C442.077,264.652 442.086,264.652 442.094,264.652C442.086,264.652 442.077,264.652 442.069,264.653ZM443.155,264.653C443.147,264.652 443.139,264.652 443.131,264.652C443.139,264.652 443.147,264.652 443.155,264.653ZM442.112,264.651C442.119,264.651 442.127,264.651 442.134,264.65C442.127,264.651 442.119,264.651 442.112,264.651ZM443.113,264.651C443.106,264.651 443.098,264.651 443.09,264.65C443.098,264.651 443.106,264.651 443.113,264.651ZM442.155,264.65C442.162,264.649 442.169,264.649 442.176,264.649C442.169,264.649 442.162,264.649 442.155,264.65ZM443.07,264.65C443.063,264.649 443.056,264.649 443.049,264.649C443.056,264.649 443.063,264.649 443.07,264.65ZM442.196,264.648L442.217,264.648L442.196,264.648ZM443.029,264.648L443.007,264.648L443.029,264.648ZM442.237,264.647C442.244,264.647 442.252,264.647 442.259,264.646C442.252,264.647 442.245,264.647 442.237,264.647ZM442.987,264.647C442.98,264.647 442.973,264.647 442.965,264.646C442.972,264.647 442.98,264.647 442.987,264.647ZM442.279,264.646C442.286,264.646 442.293,264.646 442.3,264.645C442.293,264.646 442.286,264.646 442.279,264.646ZM442.946,264.646C442.939,264.646 442.931,264.646 442.925,264.645C442.932,264.646 442.939,264.646 442.946,264.646ZM442.321,264.645L442.342,264.645L442.321,264.645ZM442.904,264.645L442.882,264.645L442.904,264.645ZM442.362,264.644L442.385,264.644L442.362,264.644ZM442.863,264.644L442.839,264.644L442.863,264.644ZM442.403,264.643L442.428,264.643L442.403,264.643ZM442.822,264.643L442.796,264.643L442.822,264.643ZM442.445,264.643L442.47,264.643L442.445,264.643ZM442.78,264.643L442.755,264.643L442.78,264.643ZM442.487,264.642L442.512,264.642L442.487,264.642ZM442.738,264.642L442.713,264.642L442.738,264.642ZM442.529,264.642L442.556,264.642L442.529,264.642ZM442.696,264.642L442.668,264.642L442.696,264.642ZM442.571,264.642L442.612,264.642L442.571,264.642ZM442.654,264.642L442.612,264.642L442.654,264.642Z" style="fill:url(#_Radial5);"/>
                    </g>
                </g>
            </g>
        </g>
        <g transform="matrix(1,0,0,1,-424.038,-40.5842)">
            <g transform="matrix(1.07317,0,0,1,-183.595,56.9935)">
                <g id="Départ">
                </g>
            </g>
            <g id="Départ1" serif:id="Départ">
            </g>
            <g id="Départ2" serif:id="Départ">
            </g>
            <g id="Départ3" serif:id="Départ">
            </g>
            <g id="Départ4" serif:id="Départ">
            </g>
            <g id="Départ5" serif:id="Départ">
            </g>
        </g>
        <g id="Logo" transform="matrix(1.04586,0,0,1.05978,-499.088,32.0605)">
            <g transform="matrix(1,0,0,1,706.279,60.4212)">
                <path d="M27.71,42.67C22.043,40.961 16.859,37.939 12.58,33.85C8.855,30.241 6.787,25.246 6.87,20.06C6.858,14.817 8.999,9.792 12.79,6.17C16.656,2.213 21.999,0.038 27.53,0.17C33.124,0.09 38.512,2.316 42.42,6.32C44.779,8.829 46.495,11.873 47.42,15.19L37.62,19C36.41,15.72 35.31,13.59 34.34,12.62C32.609,10.687 30.134,9.581 27.539,9.581C24.987,9.581 22.548,10.652 20.82,12.53C18.844,14.519 17.776,17.238 17.87,20.04C17.801,22.888 18.883,25.648 20.87,27.69C23.423,30.014 26.338,31.905 29.5,33.29C36.085,35.333 42.086,38.923 47,43.76C52.167,48.724 55.09,55.588 55.09,62.753C55.09,69.875 52.202,76.701 47.09,81.66C41.943,86.915 34.844,89.813 27.49,89.66C20.065,89.785 12.916,86.803 7.78,81.44C3.457,77.045 0.719,71.333 -0,65.21L10.58,61.39C11.247,67.75 13.05,72.387 15.99,75.3C18.996,78.448 23.177,80.213 27.53,80.17C31.97,80.196 36.228,78.385 39.29,75.17C42.603,71.898 44.414,67.394 44.29,62.74C44.421,58.125 42.635,53.655 39.36,50.4C36.014,47.093 32.057,44.467 27.71,42.67Z" style="fill-rule:nonzero;"/>
            </g>
            <g transform="matrix(1.04347,0,0,1.05792,690.284,58.7214)">
                <g transform="matrix(0.531487,0,0,0.531487,-29.0296,102.834)">
                    <g transform="matrix(119.197,0,0,119.197,445.357,87.5795)">
                        <rect x="0.064" y="-0.716" width="0.088" height="0.716" style="fill-rule:nonzero;"/>
                    </g>
                    <g transform="matrix(119.197,0,0,119.197,471.839,87.5795)">
                        <path d="M0.066,-0.615L0.066,-0.716L0.154,-0.716L0.154,-0.615L0.066,-0.615ZM0.066,-0L0.066,-0.519L0.154,-0.519L0.154,-0L0.066,-0Z" style="fill-rule:nonzero;"/>
                    </g>
                    <g transform="matrix(119.197,0,0,119.197,498.321,87.5795)">
                        <path d="M0.066,-0L0.066,-0.519L0.145,-0.519L0.145,-0.445C0.183,-0.502 0.238,-0.53 0.31,-0.53C0.341,-0.53 0.37,-0.525 0.396,-0.513C0.422,-0.502 0.442,-0.487 0.455,-0.469C0.468,-0.451 0.477,-0.429 0.482,-0.404C0.486,-0.388 0.487,-0.36 0.487,-0.319L0.487,-0L0.399,-0L0.399,-0.315C0.399,-0.351 0.396,-0.378 0.389,-0.396C0.382,-0.413 0.37,-0.428 0.353,-0.438C0.335,-0.449 0.315,-0.454 0.292,-0.454C0.254,-0.454 0.222,-0.442 0.195,-0.418C0.167,-0.395 0.154,-0.35 0.154,-0.283L0.154,-0L0.066,-0Z" style="fill-rule:nonzero;"/>
                    </g>
                    <g transform="matrix(119.197,0,0,119.197,564.612,87.5795)">
                        <path d="M0.421,-0.167L0.512,-0.156C0.497,-0.103 0.471,-0.062 0.432,-0.032C0.393,-0.003 0.344,0.012 0.284,0.012C0.208,0.012 0.148,-0.012 0.103,-0.058C0.059,-0.105 0.037,-0.171 0.037,-0.255C0.037,-0.342 0.059,-0.41 0.104,-0.458C0.149,-0.506 0.207,-0.53 0.279,-0.53C0.348,-0.53 0.405,-0.507 0.449,-0.459C0.493,-0.412 0.515,-0.346 0.515,-0.26C0.515,-0.255 0.514,-0.247 0.514,-0.237L0.127,-0.237C0.131,-0.18 0.147,-0.136 0.176,-0.106C0.205,-0.076 0.241,-0.061 0.284,-0.061C0.316,-0.061 0.344,-0.069 0.367,-0.086C0.389,-0.103 0.408,-0.13 0.421,-0.167ZM0.132,-0.309L0.422,-0.309C0.418,-0.353 0.407,-0.385 0.389,-0.407C0.361,-0.441 0.324,-0.458 0.28,-0.458C0.239,-0.458 0.205,-0.444 0.178,-0.417C0.15,-0.39 0.135,-0.354 0.132,-0.309Z" style="fill-rule:nonzero;"/>
                    </g>
                    <g transform="matrix(0.942941,0,0,1.09611,219.243,-25.5924)">
                        <rect x="276.921" y="25.725" width="11.532" height="11.093" style="fill:rgb(206,0,51);"/>
                    </g>
                </g>
                <g transform="matrix(0.973838,0,0,0.973838,6.85823,-9.12943)">
                    <text x="299.473px" y="97.162px" style="font-family:'ArialMT', 'Arial', sans-serif;font-size:119.197px;">AIR</text>
                </g>
            </g>
            <g transform="matrix(1,0,0,1,706.279,60.4212)">
                <rect x="65.35" y="1.21" width="11" height="87.46" style="fill-rule:nonzero;"/>
            </g>
            <g transform="matrix(1,0,0,1,706.279,60.4212)">
                <path d="M169.34,1.21L169.34,88.67L158.34,88.67L158.34,17.56L129.59,55.31L100.78,17.56L100.78,88.67L89.78,88.67L89.78,1.21L101.51,1.21L129.59,38L157.59,1.22L169.34,1.21Z" style="fill-rule:nonzero;"/>
            </g>
            <g transform="matrix(1,0,0,1,706.279,60.4212)">
                <path d="M246.6,88.67L246.6,1.21L257.6,1.21L257.6,79.13L289,79.13L289,88.67L246.6,88.67Z" style="fill-rule:nonzero;"/>
            </g>
            <g transform="matrix(1,0,0,1,706.279,60.4212)">
                <path d="M228,10.72C222.723,5.406 215.79,2.044 208.35,1.19L182.31,1.19L182.31,88.65L193.31,88.65L193.31,64.38L204.93,64.38C213.564,64.57 221.9,61.163 227.93,54.98C233.961,49.158 237.337,41.102 237.26,32.72C237.343,24.426 233.989,16.458 228,10.72ZM219.8,48C215.952,51.936 210.664,54.143 205.16,54.11L193.31,54.11L193.31,11.5L205.16,11.5C210.658,11.461 215.943,13.652 219.8,17.57C223.923,21.512 226.194,27.018 226.05,32.72C226.21,38.463 223.939,44.015 219.8,48Z" style="fill-rule:nonzero;"/>
            </g>
        </g>
        <g transform="matrix(0.570376,0,0,0.0863711,254.353,166.636)">
            <rect x="521.891" y="429.433" width="355.567" height="65.726" style="fill:rgb(207,42,74);"/>
        </g>
    </g>
    <defs>
        <linearGradient id="_Linear1" x1="0" y1="0" x2="1" y2="0" gradientUnits="userSpaceOnUse" gradientTransform="matrix(2.52161e-15,-411.811,411.811,2.52161e-15,375.284,500.042)"><stop offset="0" style="stop-color:rgb(229,233,245);stop-opacity:1"/><stop offset="1" style="stop-color:rgb(238,240,248);stop-opacity:1"/></linearGradient>
        <radialGradient id="_Radial3" cx="0" cy="0" r="1" gradientUnits="userSpaceOnUse" gradientTransform="matrix(409.929,0,0,409.929,580.004,522.041)"><stop offset="0" style="stop-color:rgb(207,42,74);stop-opacity:1"/><stop offset="1" style="stop-color:rgb(188,227,248);stop-opacity:1"/></radialGradient>
        <radialGradient id="_Radial4" cx="0" cy="0" r="1" gradientUnits="userSpaceOnUse" gradientTransform="matrix(402.903,0,0,402.903,591.463,524.646)"><stop offset="0" style="stop-color:rgb(207,42,74);stop-opacity:1"/><stop offset="1" style="stop-color:rgb(207,42,74);stop-opacity:1"/></radialGradient>
        <radialGradient id="_Radial5" cx="0" cy="0" r="1" gradientUnits="userSpaceOnUse" gradientTransform="matrix(400.429,44.5995,-44.5995,400.429,577.34,567.087)"><stop offset="0" style="stop-color:rgb(207,93,0);stop-opacity:1"/><stop offset="0.65" style="stop-color:rgb(207,86,11);stop-opacity:1"/><stop offset="0.84" style="stop-color:rgb(207,66,40);stop-opacity:1"/><stop offset="1" style="stop-color:rgb(207,42,74);stop-opacity:1"/></radialGradient>
    </defs>
</svg>
