<?xml version="1.0" encoding="iso-8859-1"?>
<!-- Generator: Adobe Illustrator 18.0.0, SVG Export Plug-In . SVG Version: 6.00 Build 0)  -->
<!DOCTYPE svg PUBLIC "-//W3C//DTD SVG 1.1//EN" "http://www.w3.org/Graphics/SVG/1.1/DTD/svg11.dtd">
<svg version="1.1" id="Capa_1" xmlns="http://www.w3.org/2000/svg" xmlns:xlink="http://www.w3.org/1999/xlink" x="0px" y="0px"
	 viewBox="0 0 397.641 397.641" style="enable-background:new 0 0 397.641 397.641;" xml:space="preserve">
<g>
	<path style="fill:#211915;" d="M395.456,131.416c-1.897-2.377-4.773-3.762-7.815-3.762h-17.507
		c-11.444,0-21.988,6.691-26.862,17.047c-6.255,13.293-15.893,24.819-27.87,33.329l-10.73,7.624H66.778
		c-15.461,0-30.718,2.534-45.347,7.532C8.413,197.633,0,209.397,0,223.154s8.412,25.521,21.431,29.968
		c14.63,4.998,29.887,7.532,45.348,7.532h76.188c4.143,5.653,10.826,9.332,18.355,9.332h77.996c7.529,0,14.213-3.679,18.355-9.332
		h11.97c0.834,0,1.664-0.104,2.472-0.311l72.282-18.44h22.249c12.544,0,22.749-10.206,22.749-22.75
		c0-6.145-2.453-11.725-6.427-15.823l14.423-63.461C398.066,136.904,397.354,133.793,395.456,131.416z M242.067,247.237
		c0,1.516-1.233,2.75-2.749,2.75h-77.996c-1.516,0-2.749-1.233-2.749-2.75c0-1.516,1.233-2.749,2.749-2.749h77.996
		C240.834,244.488,242.067,245.721,242.067,247.237z M268.388,240.654h-7.295c-2.83-9.344-11.519-16.167-21.774-16.167h-77.996
		c-10.255,0-18.944,6.823-21.774,16.167h-72.77c-13.257,0-26.338-2.173-38.882-6.458C20.569,231.693,20,225.111,20,223.154
		c0-0.453,0.035-1.16,0.173-2H50.9c5.522,0,10-4.477,10-10c0-1.928-0.555-3.722-1.5-5.249c2.453-0.15,4.911-0.251,7.378-0.251
		l241.083,0c2.075,0,4.1-0.646,5.792-1.848l13.332-9.472c14.777-10.5,26.667-24.718,34.383-41.118
		c1.591-3.379,5.031-5.562,8.766-5.562h4.979l-11.08,48.75h-30.01c-12.544,0-22.75,10.206-22.75,22.75
		c0,3.575,0.831,6.958,2.307,9.971L268.388,240.654z M366.646,221.904h-32.623c-1.517,0-2.75-1.233-2.75-2.75s1.233-2.75,2.75-2.75
		h32.623c1.516,0,2.749,1.233,2.749,2.75S368.162,221.904,366.646,221.904z"/>
</g>
<g>
</g>
<g>
</g>
<g>
</g>
<g>
</g>
<g>
</g>
<g>
</g>
<g>
</g>
<g>
</g>
<g>
</g>
<g>
</g>
<g>
</g>
<g>
</g>
<g>
</g>
<g>
</g>
<g>
</g>
</svg>
